<svg xmlns="http://www.w3.org/2000/svg" xmlns:xlink="http://www.w3.org/1999/xlink" style="isolation:isolate" viewBox="0 0 20 20" version="1.1" shape-rendering="crispEdges" width="150" height="150"><path d="M8 15v1H4v1H3v3h14v-3h-1v-1h-4v-1h3v-1h1v-1h1v-3h1V7h-1V4h-1V3h-1V2H5v1H4v1H3v3H2v3h1v3h1v1h1v1h3z" fill="#F5CFA0"/><path d="M5 15v-1H4v-1H3v-3H2V7h1V4h1V3h1V2h10v1h1v1h1v3h1v3h-1v3h-1v1h-1v1H5z" fill="#FFF" fill-opacity=".1"/><path d="M6 7h1v2H5V8h1V7zm7 0h1v2h-2V8h1V7z" fill="#FFF"/><path d="M7 7v1H6v1h2V7H7zm7 0v1h-1v1h2V7h-1z" fill="#5b7c8b"/><path d="M7 7v1h1V7H7zM6 8v1h1V8H6zm8-1v1h1V7h-1zm-1 1v1h1V8h-1z" fill="#FFF" fill-opacity=".5"/><path d="M7 5v1H5v1H4V6h1V5h2zm6 0h2v1h1v1h-1V6h-2V5z" fill-rule="evenodd" fill="#362e2e"/><path d="M8 12v2h4v-2H8z" fill="#FFF"/><path d="M3 20v-3h1v-1h12v1h1v3H3z" fill="#005b96"/><path d="M3 6h1V4h1V3h2v1h1v1h4V4h1V3h2v1h1v2h1V4h-1V3h-1V2H5v1H4v1H3v2z" fill="#504444"/></svg>